<?xml version="1.0" standalone="no"?>
<!DOCTYPE svg PUBLIC "-//W3C//DTD SVG 20010904//EN"
 "http://www.w3.org/TR/2001/REC-SVG-20010904/DTD/svg10.dtd">
<svg version="1.0" xmlns="http://www.w3.org/2000/svg"
 width="512.000000pt" height="512.000000pt" viewBox="0 0 512.000000 512.000000"
 preserveAspectRatio="xMidYMid meet">
<metadata>
Created by potrace 1.14, written by Peter Selinger 2001-2017
</metadata>
<g transform="translate(0.000000,512.000000) scale(0.100000,-0.100000)"
fill="#000000" stroke="none">
<path d="M1778 5075 c-2 -1 -23 -5 -48 -8 -94 -11 -168 -33 -270 -80 -197 -91
-378 -277 -458 -473 l-28 -67 -93 -29 c-98 -31 -236 -99 -258 -127 -7 -9 -12
-31 -10 -49 2 -29 -7 -42 -68 -105 -60 -62 -74 -72 -95 -66 -41 10 -76 -16
-114 -84 -94 -167 -141 -404 -114 -575 7 -46 4 -66 -26 -163 -115 -361 -141
-774 -74 -1154 5 -33 12 -73 15 -89 12 -72 78 -292 120 -396 52 -131 89 -208
162 -335 28 -48 51 -91 51 -94 0 -4 -26 -12 -57 -20 -89 -20 -171 -68 -249
-146 -116 -114 -167 -245 -160 -409 13 -308 258 -532 571 -520 227 8 410 144
494 368 11 29 17 57 13 61 -17 19 33 -8 102 -54 40 -28 91 -60 112 -72 246
-138 427 -212 671 -273 92 -23 115 -27 211 -41 20 -3 42 -8 49 -10 71 -24 491
-24 653 -1 63 9 129 18 145 21 66 9 326 81 380 105 11 5 52 21 90 36 155 60
440 221 546 308 14 11 43 35 65 51 90 70 265 239 334 324 19 24 40 48 46 55
35 37 145 196 201 290 228 383 344 801 346 1242 0 158 -9 287 -29 404 -2 14
-8 52 -14 85 -30 184 -126 461 -231 664 -32 63 -59 119 -59 123 0 5 9 27 19
51 31 66 39 108 36 188 -2 41 -5 79 -7 84 -1 6 17 28 42 50 24 22 54 49 66 60
59 56 199 182 215 193 44 31 49 59 49 289 0 120 -4 223 -8 230 -4 6 -20 19
-36 27 -43 22 -64 11 -171 -89 -34 -32 -35 -33 -255 -229 -80 -71 -156 -140
-170 -152 l-25 -23 -60 21 c-72 24 -166 21 -235 -9 l-44 -20 -91 67 c-123 91
-250 168 -386 233 -129 63 -321 137 -353 137 -23 -1 -66 -32 -66 -49 0 -6 -14
-5 -40 4 -21 8 -67 19 -100 26 -36 7 -59 16 -57 23 8 22 -23 66 -51 72 -15 3
-34 8 -42 10 -14 3 -67 9 -175 19 -76 7 -302 7 -401 0 -78 -6 -94 -4 -129 14
-21 12 -46 21 -55 21 -9 0 -20 4 -25 9 -19 18 -162 43 -262 46 -56 2 -103 2
-105 0z m-1157 -4382 c32 -37 35 -54 18 -101 -33 -94 -190 -65 -189 35 2 95
109 136 171 66z"/>
</g>
</svg>
